<svg xmlns="http://www.w3.org/2000/svg" width="1312" height="582"><g fill="#292929"><path d="M1017.404 474.855c-29.783 0-49.07-13.047-57.863-26.662-2.269-3.688-1.135-6.809 2.553-9.362l19.572-13.615c3.687-2.553 6.524-1.702 9.644 1.418 5.957 5.389 16.735 12.481 26.662 12.481 7.092 0 11.063-1.418 11.063-5.672 0-6.241-12.48-8.511-21.274-11.914-8.793-3.404-44.816-13.048-44.816-42.831s26.662-41.697 54.459-41.697c25.528 0 43.399 11.064 52.76 22.977 2.553 3.404 1.418 7.09-2.27 9.642l-17.869 11.914c-3.404 2.27-6.524 1.987-9.928-.566-5.956-4.538-15.885-9.645-24.394-9.645-6.808 0-8.793 2.553-8.793 5.106 0 7.091 12.763 9.643 21.557 13.047S1073 403.375 1073 431.74c0 28.364-21.558 43.115-55.596 43.115m-554.814-1.418c-39.711 0-68.077-29.217-68.077-68.076 0-39.711 28.366-68.075 68.077-68.075s67.791 28.364 67.791 68.075c0 38.859-28.081 68.076-67.791 68.076m437.953-.283c-39.711 0-67.225-28.083-67.225-67.793s27.514-67.508 67.225-67.508c20.139 0 37.157 7.943 48.787 20.707 2.836 3.687 2.269 7.091-1.418 9.928l-21.559 17.017c-3.404 2.553-6.24 1.987-9.927-.566-3.121-2.269-7.657-4.256-14.749-4.256-14.182 0-24.111 10.495-24.111 24.678 0 14.182 9.929 24.961 24.111 24.961 7.092 0 11.628-1.702 14.749-3.971 3.687-2.269 6.523-2.836 9.927-.283l21.559 16.168c3.687 2.836 4.538 6.239 1.701 9.359-11.346 13.331-28.648 21.559-49.07 21.559m-645.016-2.553c-4.538 0-7.092-2.554-7.092-7.092V293.32c0-4.539 2.554-7.09 7.092-7.09h80.555c27.23 0 58.431 20.139 58.431 63.537s-31.201 63.82-58.431 63.82h-40.844v49.922c0 4.538-2.553 7.092-7.092 7.092zm296.127 0c-4.538 0-7.09-2.554-7.09-7.092V293.32c0-4.539 2.552-7.09 7.09-7.09h31.486c4.539 0 7.09 2.268 7.09 7.09l-.283 170.189c0 4.822-2.551 7.092-7.09 7.092zm66.941 0c-4.538 0-7.089-2.554-7.089-7.092V347.214c0-4.538 2.551-7.092 7.089-7.092h31.487c4.538 0 7.09 2.27 7.09 7.092l-.284 116.295c0 4.822-2.553 7.092-7.091 7.092zm110.057 0c-30.067 0-42.832-15.318-42.832-41.981v-54.461h-9.076c-4.538 0-7.092-2.553-7.092-7.091v-19.854c0-4.538 2.554-7.092 7.092-7.092h9.076v-33.187c0-4.539 2.554-7.092 7.092-7.092h31.201c4.538 0 7.092 2.553 7.092 7.092v33.187h18.435c4.539 0 7.092 2.554 7.092 7.092v19.854c0 4.538-2.553 7.091-7.092 7.091h-18.435v46.803c0 16.452 9.926 14.75 17.017 14.75 4.539 0 7.092 2.552 7.092 7.09v20.707c0 4.538-2.553 7.092-7.092 7.092zm50.772 0c-4.539 0-7.09-2.554-7.09-7.092V347.214c0-4.538 2.551-7.092 7.09-7.092h31.486c4.538 0 7.09 2.27 7.09 7.092l-.283 116.295c0 4.822-2.554 7.092-7.092 7.092zM462.59 430.322c14.182 0 23.259-10.779 23.259-24.961 0-14.183-9.077-24.678-23.259-24.678s-23.543 10.495-23.543 24.678c0 14.182 9.36 24.961 23.543 24.961m-167.352-62.12h32.336c9.644 0 20.139-5.671 20.139-18.435s-9.929-18.154-19.573-18.154h-32.902zm338.959-41.695c-11.63 0-24.111-9.077-24.111-24.394s12.481-23.258 24.111-23.258 24.109 7.941 24.109 23.258-12.479 24.394-24.109 24.394m160.828 0c-11.629 0-24.109-9.077-24.109-24.394s12.48-23.258 24.109-23.258 24.11 7.941 24.11 23.258-12.48 24.394-24.11 24.394m-70.06-58.238c-54.744 0-93.321-39.711-93.321-94.455s38.577-94.455 93.321-94.455 92.752 39.711 92.752 94.455-38.008 94.455-92.752 94.455m158.558 0c-21.841 0-50.205-11.061-50.205-53.041v-72.615c0-4.539 2.552-7.09 7.09-7.09h31.201c4.539 0 7.092 2.551 7.092 7.09v65.24c0 21.557 15.318 22.408 19.289 22.408s18.436-.851 18.436-22.408v-65.24c0-4.539 2.553-7.09 7.091-7.09h31.202c4.538 0 7.091 2.551 7.091 7.09v116.296c0 4.539-2.553 7.09-7.091 7.09h-31.202c-4.538 0-7.091-1.7-7.091-4.537v-4.539c-9.645 8.509-22.124 11.346-32.903 11.346m105.233-2.27c-4.539 0-7.09-2.551-7.09-7.09V142.613c0-4.539 2.551-7.09 7.09-7.09h31.203c4.538 0 7.09 2.551 7.09 7.09v16.453c9.927-15.601 24.11-22.978 38.576-24.963 4.822-.568 7.375 2.27 7.375 6.808v28.08c0 4.539-2.554 6.809-7.092 7.092-13.615.284-38.859 3.972-38.859 37.158v45.668c0 4.539-2.552 7.09-7.09 7.09zm-263.791-44.531c27.797 0 45.951-19.857 45.951-47.654s-18.154-47.653-45.951-47.653-46.52 19.855-46.52 47.653 18.722 47.654 46.52 47.654M1184 582.471h128V0h-128zM0 582.471h128V0H0z"/></g></svg>