<svg xmlns="http://www.w3.org/2000/svg" width="1312" height="582"><g fill="#292929"><path d="M241.887 503.739c-3.838 0-5.998-2.16-5.998-5.998v-142.49c0-3.838 2.16-5.998 5.998-5.998h26.386c3.839 0 5.997 1.198 5.997 3.357v3.6c6.237-5.278 14.632-8.637 25.427-8.637 29.266 0 51.336 24.229 51.336 57.094 0 33.584-22.07 56.851-51.336 56.851-10.795 0-19.19-3.117-25.427-8.635v44.858c0 3.838-2.158 5.998-5.997 5.998zm570.207 0c-3.838 0-5.996-2.16-5.996-5.998v-44.858c-6.237 5.518-14.635 8.635-25.43 8.635-29.266 0-51.334-23.267-51.334-56.851 0-32.865 22.068-57.094 51.334-57.094 10.795 0 19.193 3.359 25.43 8.637v-.959c0-3.838 2.158-5.998 5.996-5.998h26.387c3.838 0 5.998 2.16 5.998 5.998v142.49c0 3.838-2.16 5.998-5.998 5.998zm-396.291-41.74c-33.584 0-57.572-24.708-57.572-57.573 0-33.583 23.988-57.572 57.572-57.572s57.332 23.989 57.332 57.572c0 32.865-23.748 57.573-57.332 57.573m622.744 0c-34.304 0-56.613-24.708-56.613-57.573 0-32.864 21.828-57.332 55.412-57.332 33.583 0 53.256 24.468 53.256 57.332v4.079c0 3.838-2.16 5.996-5.998 5.996h-65.248c2.878 9.835 10.315 15.113 19.191 15.113 8.156 0 13.432-2.398 16.551-4.797s5.518-2.639 8.396-.48l16.553 12.234c3.118 2.399 4.077 5.037 1.918 7.676-10.075 11.034-25.427 17.752-43.418 17.752m-134.816-.481c-18.472 0-42.461-9.354-42.461-44.857v-61.41c0-3.838 2.16-5.998 5.998-5.998h26.386c3.838 0 5.998 2.16 5.998 5.998v55.172c0 18.231 12.955 18.951 16.313 18.951s15.592-.72 15.592-18.951v-55.172c0-3.838 2.16-5.998 5.998-5.998h26.386c3.839 0 5.999 2.16 5.999 5.998v98.351c0 3.838-2.16 5.998-5.999 5.998h-26.386c-3.838 0-5.998-1.439-5.998-3.838v-3.838c-8.156 7.197-18.711 9.594-27.826 9.594M491.127 459.6c-3.838 0-5.998-2.16-5.998-5.998V309.671c0-3.839 2.16-5.997 5.998-5.997h26.627c3.838 0 5.998 1.919 5.998 5.997l-.24 143.931c0 4.078-2.16 5.998-5.998 5.998zm56.613 0c-3.838 0-5.998-2.16-5.998-5.998v-98.351c0-3.838 2.16-5.998 5.998-5.998h26.627c3.838 0 5.998 1.92 5.998 5.998l-.24 98.351c0 4.078-2.16 5.998-5.998 5.998zm93.076 0c-25.427 0-36.222-12.954-36.222-35.504V378.04h-7.678c-3.838 0-5.996-2.16-5.996-5.998v-16.791c0-3.838 2.158-5.998 5.996-5.998h7.678v-28.067c0-3.838 2.158-5.998 5.996-5.998h26.387c3.838 0 5.998 2.16 5.998 5.998v28.067h15.591c3.839 0 5.999 2.16 5.999 5.998v16.791c0 3.838-2.16 5.998-5.999 5.998h-15.591v39.58c0 13.913 8.395 12.474 14.392 12.474 3.838 0 5.998 2.158 5.998 5.997v17.511c0 3.838-2.16 5.998-5.998 5.998zm42.94 0c-3.838 0-5.998-2.16-5.998-5.998v-98.351c0-3.838 2.16-5.998 5.998-5.998h26.627c3.838 0 5.996 1.92 5.996 5.998l-.24 98.351c0 4.078-2.158 5.998-5.996 5.998zm-389.815-34.064c11.995 0 19.911-8.875 19.911-20.869s-7.916-21.112-19.911-21.112c-11.994 0-19.671 9.117-19.671 21.112s7.677 20.869 19.671 20.869m121.862 0c11.994 0 19.67-9.115 19.67-21.11s-7.676-20.871-19.67-20.871-19.91 8.877-19.91 20.871c0 11.995 7.916 21.11 19.91 21.11m370.623 0c11.994 0 19.672-8.875 19.672-20.869s-7.678-21.112-19.672-21.112-19.91 9.117-19.91 21.112 7.916 20.869 19.91 20.869m233.408-34.783h34.545c-2.399-7.917-7.678-13.674-17.033-13.674-8.636 0-14.393 5.278-17.512 13.674m-458.9-53.014c-9.836 0-20.391-7.677-20.391-20.631s10.555-19.67 20.391-19.67 20.39 6.716 20.39 19.67-10.555 20.631-20.39 20.631m136.015 0c-9.835 0-20.39-7.677-20.39-20.631s10.555-19.67 20.39-19.67 20.391 6.716 20.391 19.67-10.555 20.631-20.391 20.631m59.971-77.34c-33.584 0-57.572-24.708-57.572-57.572 0-33.584 23.988-57.572 57.572-57.572s57.332 23.988 57.332 57.572c0 32.864-23.748 57.572-57.332 57.572m281.627 0c-34.304 0-56.613-24.708-56.613-57.572s21.828-57.334 55.412-57.334c33.583 0 53.256 24.47 53.256 57.334v4.078c0 3.838-2.16 5.996-5.998 5.996h-65.248c2.878 9.835 10.315 15.113 19.191 15.113 8.156 0 13.432-2.398 16.551-4.797s5.518-2.639 8.396-.48l16.553 12.234c3.118 2.399 4.077 5.037 1.918 7.676-10.075 11.035-25.427 17.752-43.418 17.752m-476.414-2.398c-3.838 0-5.996-2.16-5.996-5.998V108.071c0-3.838 2.158-5.996 5.996-5.996h27.588c3.118 0 5.516 1.439 7.195 4.078l50.856 81.08v-79.162c0-3.838 2.159-5.996 5.998-5.996h27.586c3.838 0 5.998 2.158 5.998 5.996v143.932c0 3.838-2.16 5.998-5.998 5.998H653.77c-3.119 0-5.518-1.44-7.198-4.078l-50.855-80.842v78.922c0 3.838-2.158 5.998-5.996 5.998zm304.416 0c-25.428 0-36.223-12.955-36.223-35.504v-46.059h-7.678c-3.838 0-5.996-2.158-5.996-5.996v-16.793c0-3.838 2.158-5.996 5.996-5.996h7.678v-28.066c0-3.839 2.158-5.998 5.996-5.998h26.387c3.838 0 5.998 2.159 5.998 5.998v28.066h15.592c3.838 0 5.998 2.158 5.998 5.996v16.793c0 3.838-2.16 5.996-5.998 5.996h-15.592v39.582c0 13.914 8.396 12.475 14.393 12.475 3.838 0 5.998 2.158 5.998 5.996v17.512c0 3.838-2.16 5.998-5.998 5.998zm41.738 0c-3.838 0-5.996-2.16-5.996-5.998v-98.354c0-3.838 2.158-5.996 5.996-5.996h26.389c3.838 0 5.996 2.158 5.996 5.996v13.914c8.396-13.194 20.391-19.43 32.625-21.109 4.078-.48 6.236 1.917 6.236 5.756v23.75c0 3.838-2.158 5.756-5.996 5.996-11.514.24-32.865 3.359-32.865 31.426v38.621c0 3.838-2.158 5.998-5.996 5.998zM756.92 223.936c11.994 0 19.672-9.115 19.672-21.109s-7.678-20.871-19.672-20.871-19.91 8.877-19.91 20.871 7.916 21.109 19.91 21.109m262.914-34.783h34.545c-2.399-7.916-7.678-13.674-17.033-13.674-8.636 0-14.393 5.278-17.512 13.674M1184 582.471h128V0h-128zM0 582.471h128V0H0z"/></g></svg>