<svg height="582" viewBox="0 0 1312 582" width="1312" xmlns="http://www.w3.org/2000/svg"><g fill="#292929"><path d="m807.114 489.42c-3.851 0-6.019-2.166-6.019-6.018v-45.017c-6.259 5.537-14.685 8.666-25.518 8.666-29.369 0-51.517-23.352-51.517-57.055 0-32.98 22.148-57.295 51.517-57.295 10.833 0 19.259 3.37 25.518 8.666v-.963c0-3.851 2.168-6.017 6.019-6.017h26.481c3.852 0 6.017 2.166 6.017 6.017v142.998c0 3.852-2.165 6.018-6.017 6.018zm-397.695-41.889c-33.703 0-57.777-24.794-57.777-57.775 0-33.703 24.074-57.777 57.777-57.777s57.535 24.074 57.535 57.777c0 32.981-23.832 57.775-57.535 57.775zm624.949 0c-34.425 0-56.814-24.794-56.814-57.775s21.908-57.537 55.611-57.537 53.444 24.556 53.444 57.537v4.092c0 3.852-2.168 6.019-6.02 6.019h-65.48c2.888 9.87 10.352 15.166 19.259 15.166 8.185 0 13.482-2.407 16.612-4.814 3.129-2.407 5.537-2.649 8.425-.483l16.61 12.278c3.129 2.407 4.092 5.055 1.926 7.703-10.111 11.074-25.518 17.814-43.573 17.814zm-135.293-.48c-18.536 0-42.611-9.389-42.611-45.018v-61.629c0-3.851 2.168-6.017 6.02-6.017h26.48c3.852 0 6.018 2.166 6.018 6.017v55.37c0 18.295 13 19.017 16.371 19.017 3.37 0 15.646-.722 15.646-19.017v-55.37c0-3.851 2.168-6.017 6.02-6.017h26.48c3.852 0 6.02 2.166 6.02 6.017v98.702c0 3.851-2.168 6.019-6.02 6.019h-26.48c-3.852 0-6.02-1.444-6.02-3.851v-3.852c-8.185 7.222-18.776 9.629-27.924 9.629zm-665.394-1.926c-3.852 0-6.018-2.168-6.018-6.019v-144.442c0-3.852 2.166-6.017 6.018-6.017h68.369c23.11 0 49.592 17.091 49.592 53.923 0 36.833-26.482 54.166-49.592 54.166h-34.666v42.37c0 3.851-2.166 6.019-6.018 6.019zm251.328 0c-3.852 0-6.018-2.168-6.018-6.019v-144.442c0-3.852 2.166-6.017 6.018-6.017h26.723c3.851 0 6.017 1.925 6.017 6.017l-.24 144.442c0 4.092-2.166 6.019-6.018 6.019zm56.814 0c-3.851 0-6.019-2.168-6.019-6.019v-98.702c0-3.851 2.168-6.017 6.019-6.017h26.721c3.852 0 6.02 1.925 6.02 6.017l-.241 98.702c0 4.092-2.167 6.019-6.019 6.019zm93.405 0c-25.518 0-36.35-13-36.35-35.629v-46.22h-7.705c-3.852 0-6.018-2.168-6.018-6.02v-16.852c0-3.851 2.166-6.017 6.018-6.017h7.705v-28.166c0-3.852 2.166-6.02 6.018-6.02h26.48c3.852 0 6.02 2.168 6.02 6.02v28.166h15.646c3.852 0 6.02 2.166 6.02 6.017v16.852c0 3.852-2.168 6.02-6.02 6.02h-15.646v39.72c0 13.963 8.425 12.518 14.443 12.518 3.852 0 6.02 2.168 6.02 6.019v17.573c0 3.851-2.168 6.019-6.02 6.019zm43.092 0c-3.852 0-6.018-2.168-6.018-6.019v-98.702c0-3.851 2.166-6.017 6.018-6.017h26.722c3.852 0 6.018 1.925 6.018 6.017l-.24 98.702c0 4.092-2.166 6.019-6.018 6.019zm-268.901-34.185c12.037 0 19.74-9.147 19.74-21.184s-7.703-20.945-19.74-20.945-19.982 8.908-19.982 20.945 7.945 21.184 19.982 21.184zm371.936 0c12.036 0 19.74-8.907 19.74-20.944 0-12.036-7.704-21.185-19.74-21.185-12.037 0-19.981 9.149-19.981 21.185 0 12.037 7.944 20.944 19.981 20.944zm234.236-34.907h34.666c-2.407-7.944-7.703-13.72-17.092-13.72-8.666 0-14.444 5.295-17.574 13.72zm-748.207-17.814h27.445c8.185 0 17.092-4.815 17.092-15.649 0-10.833-8.426-15.406-16.611-15.406h-27.926zm287.68-35.389c-9.871 0-20.463-7.703-20.463-20.703s10.592-19.74 20.463-19.74c9.87 0 20.463 6.74 20.463 19.74s-10.593 20.703-20.463 20.703zm136.498 0c-9.87 0-20.463-7.703-20.463-20.703s10.593-19.74 20.463-19.74 20.461 6.74 20.461 19.74-10.591 20.703-20.461 20.703zm60.183-48.945c-33.703 0-57.777-24.795-57.777-57.776 0-33.702 24.074-57.777 57.777-57.777s57.535 24.075 57.535 57.777c0 32.981-23.832 57.776-57.535 57.776zm282.623 0c-34.425 0-56.814-24.795-56.814-57.776 0-32.98 21.908-57.537 55.611-57.537s53.444 24.557 53.444 57.537v4.092c0 3.852-2.168 6.02-6.02 6.02h-65.48c2.888 9.87 10.352 15.166 19.259 15.166 8.185 0 13.482-2.407 16.612-4.815 3.129-2.407 5.537-2.649 8.425-.482l16.61 12.277c3.129 2.408 4.092 5.055 1.926 7.703-10.111 11.074-25.518 17.815-43.573 17.815zm-478.101-2.406c-3.852 0-6.018-2.168-6.018-6.02v-144.441c0-3.852 2.166-6.018 6.018-6.018h27.685c3.13 0 5.536 1.444 7.221 4.092l51.037 81.369v-79.443c0-3.852 2.166-6.018 6.018-6.018h27.685c3.852 0 6.018 2.166 6.018 6.018v144.441c0 3.852-2.166 6.02-6.018 6.02h-27.685c-3.13 0-5.536-1.446-7.221-4.094l-51.037-81.127v79.201c0 3.852-2.166 6.02-6.018 6.02zm305.494 0c-25.518 0-36.352-13-36.352-35.629v-46.223h-7.703c-3.852 0-6.017-2.166-6.017-6.018v-16.851c0-3.852 2.165-6.018 6.017-6.018h7.703v-28.166c0-3.851 2.168-6.019 6.02-6.019h26.48c3.852 0 6.018 2.168 6.018 6.019v28.166h15.648c3.852 0 6.018 2.166 6.018 6.018v16.851c0 3.852-2.166 6.018-6.018 6.018h-15.648v39.723c0 13.962 8.427 12.517 14.445 12.517 3.852 0 6.018 2.168 6.018 6.02v17.572c0 3.852-2.166 6.02-6.018 6.02zm41.889 0c-3.852 0-6.02-2.168-6.02-6.02v-98.701c0-3.852 2.168-6.018 6.02-6.018h26.48c3.852 0 6.018 2.166 6.018 6.018v13.963c8.425-13.241 20.462-19.501 32.74-21.186 4.092-.481 6.26 1.928 6.26 5.78v23.832c0 3.851-2.168 5.776-6.02 6.017-11.555.241-32.98 3.371-32.98 31.537v38.758c0 3.852-2.166 6.02-6.018 6.02zm-151.905-34.186c12.037 0 19.741-9.147 19.741-21.184 0-12.036-7.704-20.945-19.741-20.945s-19.982 8.909-19.982 20.945c0 12.037 7.945 21.184 19.982 21.184zm263.846-34.906h34.666c-2.407-7.944-7.703-13.723-17.092-13.723-8.666 0-14.444 5.297-17.574 13.723z"/><path d="m1184 582.471h128v-582.471h-128z"/><path d="m0 582.471h128v-582.471h-128z"/></g></svg>